<?xml version="1.0" encoding="UTF-8"?>
<svg xmlns="http://www.w3.org/2000/svg" xmlns:xlink="http://www.w3.org/1999/xlink" width="400" height="400" viewBox="0 0 400 400">
<path fill="none" stroke-width="5" stroke-linecap="butt" stroke-linejoin="miter" stroke="rgb(0%, 0%, 0%)" stroke-opacity="1" stroke-miterlimit="10" d="M 140 210 L 140 172.5 L 190 122.5 L 290 122.5 L 290 197.5 L 240 247.5 L 240 285 L 140 285 Z M 140 210 "/>
<path fill-rule="nonzero" fill="rgb(22%, 59.6%, 14.9%)" fill-opacity="1" d="M 40 205 L 177.5 205 L 177.5 215 L 40 215 Z M 40 205 "/>
<path fill-rule="nonzero" fill="rgb(22%, 59.6%, 14.9%)" fill-opacity="1" d="M 77.5 210 L 85.75 210 C 82.375 184.5 82.375 184.5 80.5 82.5 L 74.5 82.5 C 72.625 184.5 72.625 184.5 69.25 210 Z M 77.5 210 "/>
<path fill-rule="nonzero" fill="rgb(22%, 59.6%, 14.9%)" fill-opacity="1" d="M 77.5 82.5 L 81.175781 81.753906 L 64.070312 8.695312 L 61.128906 9.292969 C 71.601562 76.042969 71.601562 76.042969 73.824219 83.246094 Z M 77.5 82.5 L 76.308594 86.054688 L 148.128906 107.769531 L 149.085938 104.925781 C 86.042969 80.617188 86.042969 80.617188 78.691406 78.945312 Z M 77.5 82.5 L 75.015625 79.691406 L 20.300781 131.03125 L 22.285156 133.28125 C 74.859375 90.839844 74.859375 90.839844 79.984375 85.308594 Z M 77.5 82.5 "/>
<path fill-rule="nonzero" fill="rgb(58.4%, 34.5%, 69.8%)" fill-opacity="1" d="M 252.5 155 L 390 155 L 390 165 L 252.5 165 Z M 252.5 155 "/>
<path fill="none" stroke-width="8" stroke-linecap="butt" stroke-linejoin="miter" stroke="rgb(58.4%, 34.5%, 69.8%)" stroke-opacity="1" stroke-miterlimit="10" d="M 352.5 160 L 352.5 246 "/>
<path fill="none" stroke-width="8" stroke-linecap="butt" stroke-linejoin="miter" stroke="rgb(58.4%, 34.5%, 69.8%)" stroke-opacity="1" stroke-miterlimit="10" d="M 332.5 230 L 352.5 250 L 372.5 230 "/>
<path fill-rule="nonzero" fill="rgb(79.6%, 23.5%, 20%)" fill-opacity="1" d="M 102.5 280 L 277.5 280 L 277.5 290 L 102.5 290 Z M 102.5 280 "/>
<path fill="none" stroke-width="8" stroke-linecap="butt" stroke-linejoin="miter" stroke="rgb(79.6%, 23.5%, 20%)" stroke-opacity="1" stroke-miterlimit="10" d="M 190 285 L 190 317.5 "/>
<path fill="none" stroke-width="8" stroke-linecap="butt" stroke-linejoin="miter" stroke="rgb(79.6%, 23.5%, 20%)" stroke-opacity="1" stroke-miterlimit="10" d="M 227.5 355 C 227.5 375.710938 210.710938 392.5 190 392.5 C 169.289062 392.5 152.5 375.710938 152.5 355 C 152.5 334.289062 169.289062 317.5 190 317.5 C 210.710938 317.5 227.5 334.289062 227.5 355 Z M 227.5 355 "/>
<path fill="none" stroke-width="8" stroke-linecap="butt" stroke-linejoin="miter" stroke="rgb(79.6%, 23.5%, 20%)" stroke-opacity="1" stroke-miterlimit="10" d="M 202.5 365 L 202.5 377.226562 C 210.53125 372.710938 215.5 364.214844 215.5 355 C 215.5 345.785156 210.53125 337.289062 202.5 332.773438 L 202.5 345 L 177.5 345 L 177.5 332.773438 C 169.46875 337.289062 164.5 345.785156 164.5 355 C 164.5 364.214844 169.46875 372.710938 177.5 377.226562 L 177.5 365 Z M 202.5 365 "/>
</svg>
