<?xml version="1.0" encoding="UTF-8"?>
<svg xmlns="http://www.w3.org/2000/svg" xmlns:xlink="http://www.w3.org/1999/xlink" width="400" height="400" viewBox="0 0 400 400">
<path fill="none" stroke-width="5" stroke-linecap="butt" stroke-linejoin="miter" stroke="rgb(0%, 0%, 0%)" stroke-opacity="1" stroke-miterlimit="10" d="M 140 210 L 140 172.5 L 190 122.5 L 290 122.5 L 290 197.5 L 240 247.5 L 240 285 L 140 285 Z M 140 210 "/>
<path fill-rule="nonzero" fill="rgb(22%, 59.6%, 14.9%)" fill-opacity="1" d="M 40 205 L 177.5 205 L 177.5 215 L 40 215 Z M 40 205 "/>
<path fill-rule="nonzero" fill="rgb(22%, 59.6%, 14.9%)" fill-opacity="1" d="M 77.5 210 L 84.25 210 C 81.25 184.5 81.25 184.5 80.125 82.5 L 74.875 82.5 C 73.75 184.5 73.75 184.5 70.75 210 Z M 77.5 210 "/>
<path fill-rule="nonzero" fill="rgb(22%, 59.6%, 14.9%)" fill-opacity="1" d="M 77.5 82.5 L 80.808594 81.828125 L 63.703125 8.773438 L 61.496094 9.21875 C 71.601562 76.042969 71.601562 76.042969 74.191406 83.171875 Z M 77.5 82.5 L 76.425781 85.699219 L 148.25 107.414062 L 148.964844 105.28125 C 86.042969 80.617188 86.042969 80.617188 78.574219 79.300781 Z M 77.5 82.5 L 75.265625 79.96875 L 20.546875 131.3125 L 22.039062 133 C 74.859375 90.839844 74.859375 90.839844 79.734375 85.03125 Z M 77.5 82.5 "/>
<path fill-rule="nonzero" fill="rgb(58.4%, 34.5%, 69.8%)" fill-opacity="1" d="M 252.5 155 L 390 155 L 390 165 L 252.5 165 Z M 252.5 155 "/>
<path fill="none" stroke-width="6" stroke-linecap="butt" stroke-linejoin="miter" stroke="rgb(58.4%, 34.5%, 69.8%)" stroke-opacity="1" stroke-miterlimit="10" d="M 352.5 160 L 352.5 247 "/>
<path fill="none" stroke-width="6" stroke-linecap="butt" stroke-linejoin="miter" stroke="rgb(58.4%, 34.5%, 69.8%)" stroke-opacity="1" stroke-miterlimit="10" d="M 332.5 230 L 352.5 250 L 372.5 230 "/>
<path fill-rule="nonzero" fill="rgb(79.6%, 23.5%, 20%)" fill-opacity="1" d="M 102.5 280 L 277.5 280 L 277.5 290 L 102.5 290 Z M 102.5 280 "/>
<path fill="none" stroke-width="6" stroke-linecap="butt" stroke-linejoin="miter" stroke="rgb(79.6%, 23.5%, 20%)" stroke-opacity="1" stroke-miterlimit="10" d="M 190 285 L 190 317.5 "/>
<path fill="none" stroke-width="6" stroke-linecap="butt" stroke-linejoin="miter" stroke="rgb(79.6%, 23.5%, 20%)" stroke-opacity="1" stroke-miterlimit="10" d="M 227.5 355 C 227.5 375.710938 210.710938 392.5 190 392.5 C 169.289062 392.5 152.5 375.710938 152.5 355 C 152.5 334.289062 169.289062 317.5 190 317.5 C 210.710938 317.5 227.5 334.289062 227.5 355 Z M 227.5 355 "/>
<path fill="none" stroke-width="6" stroke-linecap="butt" stroke-linejoin="miter" stroke="rgb(79.6%, 23.5%, 20%)" stroke-opacity="1" stroke-miterlimit="10" d="M 205 367.5 L 205 379.234375 C 213.394531 374.039062 218.5 364.871094 218.5 355 C 218.5 345.128906 213.394531 335.960938 205 330.765625 L 205 342.5 L 175 342.5 L 175 330.765625 C 166.605469 335.960938 161.5 345.128906 161.5 355 C 161.5 364.871094 166.605469 374.039062 175 379.234375 L 175 367.5 Z M 205 367.5 "/>
</svg>
